<svg width="216" height="231" viewBox="0 0 216 231" fill="none" xmlns="http://www.w3.org/2000/svg">
<path d="M113 0L98 78.8458L102.226 94.7169C103.015 97.6774 102.166 100.834 100 103H115.5C113.874 100.724 113 97.9962 113 95.1988V0Z" fill="url(#paint0_linear_1_137)"/>
<path d="M205.526 177.58L144.743 125.167L128.886 120.891C125.927 120.094 123.618 117.781 122.825 114.822L115.075 128.245C117.86 127.975 120.659 128.582 123.081 129.981L205.526 177.58Z" fill="url(#paint1_linear_1_137)"/>
<path d="M5 168.66L80.7825 142.228L92.4141 130.632C94.5838 128.469 97.7414 127.626 100.701 128.419L92.9506 114.995C91.7922 117.541 89.8672 119.662 87.4446 121.061L5 168.66Z" fill="url(#paint2_linear_1_137)"/>
<circle cx="108" cy="115.5" r="15" fill="white"/>
<defs>
<linearGradient id="paint0_linear_1_137" x1="106.75" y1="0" x2="106.75" y2="103" gradientUnits="userSpaceOnUse">
<stop stop-color="white"/>
<stop offset="1" stop-color="#D9D9D9"/>
</linearGradient>
<linearGradient id="paint1_linear_1_137" x1="208.651" y1="172.167" x2="119.45" y2="120.667" gradientUnits="userSpaceOnUse">
<stop stop-color="white"/>
<stop offset="1" stop-color="#D9D9D9"/>
</linearGradient>
<linearGradient id="paint2_linear_1_137" x1="8.125" y1="174.073" x2="97.3256" y2="122.573" gradientUnits="userSpaceOnUse">
<stop stop-color="white"/>
<stop offset="1" stop-color="#D9D9D9"/>
</linearGradient>
</defs>
</svg>
